<svg xmlns="http://www.w3.org/2000/svg" width="1920" height="1080"><path d="M384,1292L116,1294L929,1323Z" fill="#687b91" stroke="#687b91" stroke-width="1.51"/><path d="M637,1285L384,1292L929,1323Z" fill="#537493" stroke="#537493" stroke-width="1.51"/><path d="M-46,-260L273,-256L1183,-254Z" fill="#d6efc5" stroke="#d6efc5" stroke-width="1.51"/><path d="M273,-256L706,-202L1183,-254Z" fill="#bce3c7" stroke="#bce3c7" stroke-width="1.51"/><path d="M1062,1298L929,1323L1374,1304Z" fill="#296094" stroke="#296094" stroke-width="1.51"/><path d="M1183,-254L1376,-236L1681,-240Z" fill="#a0b8c4" stroke="#a0b8c4" stroke-width="1.51"/><path d="M1374,1304L929,1323L1786,1317Z" fill="#1e4f8e" stroke="#1e4f8e" stroke-width="1.51"/><path d="M1583,1298L1374,1304L1786,1317Z" fill="#1b3e87" stroke="#1b3e87" stroke-width="1.51"/><path d="M1946,743L2040,861L2052,639Z" fill="#235b9a" stroke="#235b9a" stroke-width="1.51"/><path d="M2040,861L2038,984L2068,1186Z" fill="#1d3b88" stroke="#1d3b88" stroke-width="1.51"/><path d="M2058,335L1955,391L2078,562Z" fill="#477198" stroke="#477198" stroke-width="1.51"/><path d="M2040,861L2068,1186L2078,562Z" fill="#1e4a8e" stroke="#1e4a8e" stroke-width="1.51"/><path d="M2052,639L2040,861L2078,562Z" fill="#275e96" stroke="#275e96" stroke-width="1.51"/><path d="M1976,-29L2098,65L2114,-91Z" fill="#848491" stroke="#848491" stroke-width="1.51"/><path d="M2098,65L1931,188L2134,276Z" fill="#6e7d92" stroke="#6e7d92" stroke-width="1.51"/><path d="M1931,188L2058,335L2134,276Z" fill="#607995" stroke="#607995" stroke-width="1.51"/><path d="M2058,335L2078,562L2134,276Z" fill="#497091" stroke="#497091" stroke-width="1.51"/><path d="M2078,562L2068,1186L2134,276Z" fill="#265d92" stroke="#265d92" stroke-width="1.51"/><path d="M2114,-91L2098,65L2134,276Z" fill="#777e8b" stroke="#777e8b" stroke-width="1.51"/><path d="M1681,-240L1882,-191L2136,-194Z" fill="#9890ad" stroke="#9890ad" stroke-width="1.51"/><path d="M1882,-191L2114,-91L2136,-194Z" fill="#8d889a" stroke="#8d889a" stroke-width="1.51"/><path d="M2114,-91L2134,276L2136,-194Z" fill="#7e808a" stroke="#7e808a" stroke-width="1.51"/><path d="M2038,984L1968,1191L2068,1186Z" fill="#1e3185" stroke="#1e3185" stroke-width="1.51"/><path d="M1955,391L1981,569L2078,562Z" fill="#3c6f9c" stroke="#3c6f9c" stroke-width="1.51"/><path d="M1882,-191L1976,-29L2114,-91Z" fill="#8f8a9a" stroke="#8f8a9a" stroke-width="1.51"/><path d="M1976,-29L1917,54L2098,65Z" fill="#848698" stroke="#848698" stroke-width="1.51"/><path d="M1917,54L1931,188L2098,65Z" fill="#7e849a" stroke="#7e849a" stroke-width="1.51"/><path d="M1915,1250L1786,1317L2036,1300Z" fill="#1a2a7b" stroke="#1a2a7b" stroke-width="1.51"/><path d="M1968,1191L2036,1300L2068,1186Z" fill="#192979" stroke="#192979" stroke-width="1.51"/><path d="M1981,569L2052,639L2078,562Z" fill="#316799" stroke="#316799" stroke-width="1.51"/><path d="M1931,188L1955,391L2058,335Z" fill="#5c799c" stroke="#5c799c" stroke-width="1.51"/><path d="M1879,951L1968,1191L2038,984Z" fill="#213c8f" stroke="#213c8f" stroke-width="1.51"/><path d="M1910,853L1879,951L2038,984Z" fill="#224997" stroke="#224997" stroke-width="1.51"/><path d="M1910,853L2038,984L2040,861Z" fill="#214993" stroke="#214993" stroke-width="1.51"/><path d="M1946,743L1910,853L2040,861Z" fill="#24559b" stroke="#24559b" stroke-width="1.51"/><path d="M1981,569L1946,743L2052,639Z" fill="#2e649d" stroke="#2e649d" stroke-width="1.51"/><path d="M1968,1191L1915,1250L2036,1300Z" fill="#192a7b" stroke="#192a7b" stroke-width="1.51"/><path d="M1681,-240L1820,-182L1882,-191Z" fill="#9b96b3" stroke="#9b96b3" stroke-width="1.51"/><path d="M1772,594L1778,702L1946,743Z" fill="#326aac" stroke="#326aac" stroke-width="1.51"/><path d="M1931,188L1747,203L1955,391Z" fill="#6b81a6" stroke="#6b81a6" stroke-width="1.51"/><path d="M1747,203L1754,414L1955,391Z" fill="#5d81aa" stroke="#5d81aa" stroke-width="1.51"/><path d="M1754,414L1772,594L1955,391Z" fill="#4b7aac" stroke="#4b7aac" stroke-width="1.51"/><path d="M1879,951L1797,1175L1968,1191Z" fill="#253994" stroke="#253994" stroke-width="1.51"/><path d="M1882,-191L1772,-18L1976,-29Z" fill="#968fa5" stroke="#968fa5" stroke-width="1.51"/><path d="M1955,391L1772,594L1981,569Z" fill="#4073a7" stroke="#4073a7" stroke-width="1.51"/><path d="M1772,594L1946,743L1981,569Z" fill="#356aa7" stroke="#356aa7" stroke-width="1.51"/><path d="M1820,-182L1772,-18L1882,-191Z" fill="#9993ac" stroke="#9993ac" stroke-width="1.51"/><path d="M1772,-18L1917,54L1976,-29Z" fill="#8d8ca3" stroke="#8d8ca3" stroke-width="1.51"/><path d="M1797,1175L1915,1250L1968,1191Z" fill="#203089" stroke="#203089" stroke-width="1.51"/><path d="M1778,702L1840,788L1946,743Z" fill="#2c63aa" stroke="#2c63aa" stroke-width="1.51"/><path d="M1840,788L1910,853L1946,743Z" fill="#295ba3" stroke="#295ba3" stroke-width="1.51"/><path d="M1758,970L1797,1175L1879,951Z" fill="#26459c" stroke="#26459c" stroke-width="1.51"/><path d="M1917,54L1747,203L1931,188Z" fill="#7f88a7" stroke="#7f88a7" stroke-width="1.51"/><path d="M1740,35L1747,203L1917,54Z" fill="#878fa9" stroke="#878fa9" stroke-width="1.51"/><path d="M1494,1288L1374,1304L1583,1298Z" fill="#1d478c" stroke="#1d478c" stroke-width="1.51"/><path d="M1772,-18L1740,35L1917,54Z" fill="#8d91a8" stroke="#8d91a8" stroke-width="1.51"/><path d="M1797,1175L1786,1317L1915,1250Z" fill="#1f3188" stroke="#1f3188" stroke-width="1.51"/><path d="M1840,788L1879,951L1910,853Z" fill="#2854a2" stroke="#2854a2" stroke-width="1.51"/><path d="M1840,788L1758,970L1879,951Z" fill="#2852a2" stroke="#2852a2" stroke-width="1.51"/><path d="M1642,-99L1772,-18L1820,-182Z" fill="#9899ac" stroke="#9899ac" stroke-width="1.51"/><path d="M1778,702L1686,790L1840,788Z" fill="#2a67ac" stroke="#2a67ac" stroke-width="1.51"/><path d="M1686,790L1758,970L1840,788Z" fill="#285ca8" stroke="#285ca8" stroke-width="1.51"/><path d="M1747,203L1634,243L1754,414Z" fill="#668bad" stroke="#668bad" stroke-width="1.51"/><path d="M1754,414L1649,491L1772,594Z" fill="#447fb0" stroke="#447fb0" stroke-width="1.51"/><path d="M1758,970L1643,975L1797,1175Z" fill="#26499e" stroke="#26499e" stroke-width="1.51"/><path d="M1643,975L1591,1168L1797,1175Z" fill="#26479d" stroke="#26479d" stroke-width="1.51"/><path d="M1681,-240L1642,-99L1820,-182Z" fill="#9b9db3" stroke="#9b9db3" stroke-width="1.51"/><path d="M1740,35L1652,45L1747,203Z" fill="#8796ab" stroke="#8796ab" stroke-width="1.51"/><path d="M1686,790L1643,975L1758,970Z" fill="#2659a6" stroke="#2659a6" stroke-width="1.51"/><path d="M1591,1168L1583,1298L1786,1317Z" fill="#1f3c8c" stroke="#1f3c8c" stroke-width="1.51"/><path d="M1591,1168L1786,1317L1797,1175Z" fill="#223a8f" stroke="#223a8f" stroke-width="1.51"/><path d="M1634,243L1607,399L1754,414Z" fill="#5a8bb0" stroke="#5a8bb0" stroke-width="1.51"/><path d="M1772,594L1625,688L1778,702Z" fill="#3273b0" stroke="#3273b0" stroke-width="1.51"/><path d="M1625,688L1686,790L1778,702Z" fill="#2a6fb0" stroke="#2a6fb0" stroke-width="1.51"/><path d="M1649,491L1625,688L1772,594Z" fill="#377cb2" stroke="#377cb2" stroke-width="1.51"/><path d="M1642,-99L1740,35L1772,-18Z" fill="#9399aa" stroke="#9399aa" stroke-width="1.51"/><path d="M1642,-99L1652,45L1740,35Z" fill="#919cac" stroke="#919cac" stroke-width="1.51"/><path d="M1652,45L1634,243L1747,203Z" fill="#7d95ad" stroke="#7d95ad" stroke-width="1.51"/><path d="M1607,399L1649,491L1754,414Z" fill="#4d87b1" stroke="#4d87b1" stroke-width="1.51"/><path d="M1536,355L1607,399L1634,243Z" fill="#5c91b2" stroke="#5c91b2" stroke-width="1.51"/><path d="M1512,1018L1591,1168L1643,975Z" fill="#2553a2" stroke="#2553a2" stroke-width="1.51"/><path d="M1437,592L1625,688L1649,491Z" fill="#3484b5" stroke="#3484b5" stroke-width="1.51"/><path d="M1642,-99L1533,-18L1652,45Z" fill="#93a1ae" stroke="#93a1ae" stroke-width="1.51"/><path d="M1450,-159L1642,-99L1681,-240Z" fill="#9ba6b6" stroke="#9ba6b6" stroke-width="1.51"/><path d="M1376,-236L1450,-159L1681,-240Z" fill="#9eafbe" stroke="#9eafbe" stroke-width="1.51"/><path d="M1509,839L1643,975L1686,790Z" fill="#2465ab" stroke="#2465ab" stroke-width="1.51"/><path d="M1625,688L1509,839L1686,790Z" fill="#2571b1" stroke="#2571b1" stroke-width="1.51"/><path d="M1431,55L1634,243L1652,45Z" fill="#85a0b0" stroke="#85a0b0" stroke-width="1.51"/><path d="M1437,592L1504,710L1625,688Z" fill="#2c82b7" stroke="#2c82b7" stroke-width="1.51"/><path d="M1504,710L1509,839L1625,688Z" fill="#2378b5" stroke="#2378b5" stroke-width="1.51"/><path d="M1431,55L1431,278L1634,243Z" fill="#78a2b3" stroke="#78a2b3" stroke-width="1.51"/><path d="M1509,839L1512,1018L1643,975Z" fill="#225fa8" stroke="#225fa8" stroke-width="1.51"/><path d="M1533,-18L1431,55L1652,45Z" fill="#8ea5b1" stroke="#8ea5b1" stroke-width="1.51"/><path d="M1607,399L1437,592L1649,491Z" fill="#418bb5" stroke="#418bb5" stroke-width="1.51"/><path d="M1450,-159L1533,-18L1642,-99Z" fill="#99a9b1" stroke="#99a9b1" stroke-width="1.51"/><path d="M1536,355L1437,592L1607,399Z" fill="#4991b6" stroke="#4991b6" stroke-width="1.51"/><path d="M1431,278L1536,355L1634,243Z" fill="#6498b3" stroke="#6498b3" stroke-width="1.51"/><path d="M1491,1181L1494,1288L1583,1298Z" fill="#204691" stroke="#204691" stroke-width="1.51"/><path d="M1491,1181L1583,1298L1591,1168Z" fill="#224695" stroke="#224695" stroke-width="1.51"/><path d="M1512,1018L1491,1181L1591,1168Z" fill="#2750a1" stroke="#2750a1" stroke-width="1.51"/><path d="M1346,396L1437,592L1536,355Z" fill="#4998b9" stroke="#4998b9" stroke-width="1.51"/><path d="M706,-202L979,-190L1183,-254Z" fill="#abd9c8" stroke="#abd9c8" stroke-width="1.51"/><path d="M1347,1173L1491,1181L1512,1018Z" fill="#2856a4" stroke="#2856a4" stroke-width="1.51"/><path d="M1509,839L1378,945L1512,1018Z" fill="#2368ad" stroke="#2368ad" stroke-width="1.51"/><path d="M1450,-159L1343,-9L1533,-18Z" fill="#98b1b3" stroke="#98b1b3" stroke-width="1.51"/><path d="M1343,-9L1431,55L1533,-18Z" fill="#91b0b4" stroke="#91b0b4" stroke-width="1.51"/><path d="M1431,278L1346,396L1536,355Z" fill="#5a9eb7" stroke="#5a9eb7" stroke-width="1.51"/><path d="M1312,694L1353,850L1504,710Z" fill="#2185bb" stroke="#2185bb" stroke-width="1.51"/><path d="M1504,710L1353,850L1509,839Z" fill="#237ab5" stroke="#237ab5" stroke-width="1.51"/><path d="M1353,850L1378,945L1509,839Z" fill="#2373b3" stroke="#2373b3" stroke-width="1.51"/><path d="M1378,945L1347,1173L1512,1018Z" fill="#2761aa" stroke="#2761aa" stroke-width="1.51"/><path d="M1491,1181L1374,1304L1494,1288Z" fill="#214c94" stroke="#214c94" stroke-width="1.51"/><path d="M1347,1173L1374,1304L1491,1181Z" fill="#25529b" stroke="#25529b" stroke-width="1.51"/><path d="M1437,592L1312,694L1504,710Z" fill="#2b8abb" stroke="#2b8abb" stroke-width="1.51"/><path d="M1431,55L1282,255L1431,278Z" fill="#79acb8" stroke="#79acb8" stroke-width="1.51"/><path d="M1354,34L1282,255L1431,55Z" fill="#87b3b8" stroke="#87b3b8" stroke-width="1.51"/><path d="M1343,-9L1354,34L1431,55Z" fill="#90b4b7" stroke="#90b4b7" stroke-width="1.51"/><path d="M1346,396L1306,576L1437,592Z" fill="#3a9bbe" stroke="#3a9bbe" stroke-width="1.51"/><path d="M1376,-236L1343,-9L1450,-159Z" fill="#9db8bb" stroke="#9db8bb" stroke-width="1.51"/><path d="M1179,1241L1062,1298L1374,1304Z" fill="#265d98" stroke="#265d98" stroke-width="1.51"/><path d="M1212,-67L1343,-9L1376,-236Z" fill="#9dbebb" stroke="#9dbebb" stroke-width="1.51"/><path d="M1306,576L1312,694L1437,592Z" fill="#2e94be" stroke="#2e94be" stroke-width="1.51"/><path d="M1282,255L1346,396L1431,278Z" fill="#61a7ba" stroke="#61a7ba" stroke-width="1.51"/><path d="M1138,102L1282,255L1354,34Z" fill="#86bcbb" stroke="#86bcbb" stroke-width="1.51"/><path d="M1347,1173L1179,1241L1374,1304Z" fill="#255a9c" stroke="#255a9c" stroke-width="1.51"/><path d="M1183,-254L1212,-67L1376,-236Z" fill="#a1c5c4" stroke="#a1c5c4" stroke-width="1.51"/><path d="M1353,850L1156,1012L1378,945Z" fill="#2376b4" stroke="#2376b4" stroke-width="1.51"/><path d="M1156,1012L1347,1173L1378,945Z" fill="#286bae" stroke="#286bae" stroke-width="1.51"/><path d="M1201,387L1306,576L1346,396Z" fill="#47a6bf" stroke="#47a6bf" stroke-width="1.51"/><path d="M1201,387L1155,494L1306,576Z" fill="#41a9c2" stroke="#41a9c2" stroke-width="1.51"/><path d="M1282,255L1219,288L1346,396Z" fill="#60aebd" stroke="#60aebd" stroke-width="1.51"/><path d="M1219,288L1201,387L1346,396Z" fill="#57adbe" stroke="#57adbe" stroke-width="1.51"/><path d="M1156,1012L1136,1155L1347,1173Z" fill="#2e69ad" stroke="#2e69ad" stroke-width="1.51"/><path d="M1312,694L1148,809L1353,850Z" fill="#1f8bbe" stroke="#1f8bbe" stroke-width="1.51"/><path d="M1148,809L1156,1012L1353,850Z" fill="#2581b8" stroke="#2581b8" stroke-width="1.51"/><path d="M1343,-9L1212,-67L1354,34Z" fill="#96bdb9" stroke="#96bdb9" stroke-width="1.51"/><path d="M1212,-67L1138,102L1354,34Z" fill="#93c1bb" stroke="#93c1bb" stroke-width="1.51"/><path d="M1136,1155L1179,1241L1347,1173Z" fill="#2d62a6" stroke="#2d62a6" stroke-width="1.51"/><path d="M1306,576L1162,635L1312,694Z" fill="#2a9bc1" stroke="#2a9bc1" stroke-width="1.51"/><path d="M1162,635L1148,809L1312,694Z" fill="#2697c1" stroke="#2697c1" stroke-width="1.51"/><path d="M1138,102L1219,288L1282,255Z" fill="#77b9bd" stroke="#77b9bd" stroke-width="1.51"/><path d="M1155,494L1162,635L1306,576Z" fill="#33a4c3" stroke="#33a4c3" stroke-width="1.51"/><path d="M1148,809L1088,874L1156,1012Z" fill="#2c86b8" stroke="#2c86b8" stroke-width="1.51"/><path d="M993,-43L1138,102L1212,-67Z" fill="#99cabb" stroke="#99cabb" stroke-width="1.51"/><path d="M1183,-254L979,-190L1212,-67Z" fill="#a4cdc4" stroke="#a4cdc4" stroke-width="1.51"/><path d="M979,-190L993,-43L1212,-67Z" fill="#a4d0bd" stroke="#a4d0bd" stroke-width="1.51"/><path d="M1138,102L1027,240L1219,288Z" fill="#7bbfbd" stroke="#7bbfbd" stroke-width="1.51"/><path d="M1014,364L1201,387L1219,288Z" fill="#5db5bf" stroke="#5db5bf" stroke-width="1.51"/><path d="M1027,240L1014,364L1219,288Z" fill="#69bcbe" stroke="#69bcbe" stroke-width="1.51"/><path d="M993,-43L1014,67L1138,102Z" fill="#96ccbc" stroke="#96ccbc" stroke-width="1.51"/><path d="M1007,741L1148,809L1162,635Z" fill="#2b9cc1" stroke="#2b9cc1" stroke-width="1.51"/><path d="M1014,364L1155,494L1201,387Z" fill="#53b3c1" stroke="#53b3c1" stroke-width="1.51"/><path d="M1088,874L1033,970L1156,1012Z" fill="#3081b5" stroke="#3081b5" stroke-width="1.51"/><path d="M1055,1143L1136,1155L1156,1012Z" fill="#3470ae" stroke="#3470ae" stroke-width="1.51"/><path d="M1155,494L989,507L1162,635Z" fill="#3aacc3" stroke="#3aacc3" stroke-width="1.51"/><path d="M1136,1155L1062,1298L1179,1241Z" fill="#2f65a0" stroke="#2f65a0" stroke-width="1.51"/><path d="M1055,1143L1062,1298L1136,1155Z" fill="#3469a5" stroke="#3469a5" stroke-width="1.51"/><path d="M1014,364L989,507L1155,494Z" fill="#4eb4c2" stroke="#4eb4c2" stroke-width="1.51"/><path d="M1033,970L1055,1143L1156,1012Z" fill="#3579b1" stroke="#3579b1" stroke-width="1.51"/><path d="M989,507L1007,741L1162,635Z" fill="#37a8c3" stroke="#37a8c3" stroke-width="1.51"/><path d="M1014,67L1027,240L1138,102Z" fill="#8bc8bc" stroke="#8bc8bc" stroke-width="1.51"/><path d="M1007,741L1088,874L1148,809Z" fill="#2e94be" stroke="#2e94be" stroke-width="1.51"/><path d="M706,-202L899,-164L979,-190Z" fill="#b0dcc4" stroke="#b0dcc4" stroke-width="1.51"/><path d="M989,507L907,677L1007,741Z" fill="#3aacc3" stroke="#3aacc3" stroke-width="1.51"/><path d="M1014,67L936,128L1027,240Z" fill="#8bccbd" stroke="#8bccbd" stroke-width="1.51"/><path d="M1055,1143L929,1323L1062,1298Z" fill="#346a9d" stroke="#346a9d" stroke-width="1.51"/><path d="M931,848L1033,970L1088,874Z" fill="#338cb9" stroke="#338cb9" stroke-width="1.51"/><path d="M1007,741L931,848L1088,874Z" fill="#3297bd" stroke="#3297bd" stroke-width="1.51"/><path d="M839,1193L929,1323L1055,1143Z" fill="#3c70a3" stroke="#3c70a3" stroke-width="1.51"/><path d="M1033,970L892,997L1055,1143Z" fill="#397eb2" stroke="#397eb2" stroke-width="1.51"/><path d="M892,997L839,1193L1055,1143Z" fill="#427aaf" stroke="#427aaf" stroke-width="1.51"/><path d="M979,-190L899,-164L993,-43Z" fill="#a8d8c0" stroke="#a8d8c0" stroke-width="1.51"/><path d="M882,422L989,507L1014,364Z" fill="#55bcc2" stroke="#55bcc2" stroke-width="1.51"/><path d="M868,292L1014,364L1027,240Z" fill="#6dc3bf" stroke="#6dc3bf" stroke-width="1.51"/><path d="M931,848L892,997L1033,970Z" fill="#388bb7" stroke="#388bb7" stroke-width="1.51"/><path d="M936,128L868,292L1027,240Z" fill="#7fc9be" stroke="#7fc9be" stroke-width="1.51"/><path d="M844,516L907,677L989,507Z" fill="#46b5c4" stroke="#46b5c4" stroke-width="1.51"/><path d="M868,292L882,422L1014,364Z" fill="#65c1c0" stroke="#65c1c0" stroke-width="1.51"/><path d="M993,-43L852,-12L1014,67Z" fill="#9ed4bc" stroke="#9ed4bc" stroke-width="1.51"/><path d="M852,-12L936,128L1014,67Z" fill="#98d3bc" stroke="#98d3bc" stroke-width="1.51"/><path d="M273,-256L403,-193L706,-202Z" fill="#d5efc1" stroke="#d5efc1" stroke-width="1.51"/><path d="M907,677L931,848L1007,741Z" fill="#35a3c2" stroke="#35a3c2" stroke-width="1.51"/><path d="M899,-164L852,-12L993,-43Z" fill="#a8d8bb" stroke="#a8d8bb" stroke-width="1.51"/><path d="M882,422L844,516L989,507Z" fill="#54bbc2" stroke="#54bbc2" stroke-width="1.51"/><path d="M696,141L760,290L868,292Z" fill="#88cfbc" stroke="#88cfbc" stroke-width="1.51"/><path d="M730,1110L839,1193L892,997Z" fill="#4d7fae" stroke="#4d7fae" stroke-width="1.51"/><path d="M714,1244L637,1285L929,1323Z" fill="#4a7197" stroke="#4a7197" stroke-width="1.51"/><path d="M907,677L778,800L931,848Z" fill="#41a3bf" stroke="#41a3bf" stroke-width="1.51"/><path d="M778,800L892,997L931,848Z" fill="#4495b9" stroke="#4495b9" stroke-width="1.51"/><path d="M696,141L868,292L936,128Z" fill="#8ed0bb" stroke="#8ed0bb" stroke-width="1.51"/><path d="M852,-12L696,141L936,128Z" fill="#9ed6ba" stroke="#9ed6ba" stroke-width="1.51"/><path d="M763,-114L852,-12L899,-164Z" fill="#afdcbb" stroke="#afdcbb" stroke-width="1.51"/><path d="M844,516L750,650L907,677Z" fill="#4eb4c2" stroke="#4eb4c2" stroke-width="1.51"/><path d="M839,1193L714,1244L929,1323Z" fill="#46719c" stroke="#46719c" stroke-width="1.51"/><path d="M868,292L766,393L882,422Z" fill="#6bc4bf" stroke="#6bc4bf" stroke-width="1.51"/><path d="M778,800L705,1002L892,997Z" fill="#4d92b5" stroke="#4d92b5" stroke-width="1.51"/><path d="M706,-202L763,-114L899,-164Z" fill="#b4dfc0" stroke="#b4dfc0" stroke-width="1.51"/><path d="M750,650L778,800L907,677Z" fill="#4bacc1" stroke="#4bacc1" stroke-width="1.51"/><path d="M705,1002L730,1110L892,997Z" fill="#5187b0" stroke="#5187b0" stroke-width="1.51"/><path d="M760,290L766,393L868,292Z" fill="#75c8bd" stroke="#75c8bd" stroke-width="1.51"/><path d="M766,393L844,516L882,422Z" fill="#61c0c0" stroke="#61c0c0" stroke-width="1.51"/><path d="M403,-193L639,-173L706,-202Z" fill="#c7e8c0" stroke="#c7e8c0" stroke-width="1.51"/><path d="M679,513L750,650L844,516Z" fill="#59bbc1" stroke="#59bbc1" stroke-width="1.51"/><path d="M763,-114L604,51L852,-12Z" fill="#afddb8" stroke="#afddb8" stroke-width="1.51"/><path d="M604,51L696,141L852,-12Z" fill="#a8dbb8" stroke="#a8dbb8" stroke-width="1.51"/><path d="M766,393L679,513L844,516Z" fill="#63c1c0" stroke="#63c1c0" stroke-width="1.51"/><path d="M730,1110L714,1244L839,1193Z" fill="#5378a6" stroke="#5378a6" stroke-width="1.51"/><path d="M544,852L630,1008L705,1002Z" fill="#6095b2" stroke="#6095b2" stroke-width="1.51"/><path d="M583,-99L604,51L763,-114Z" fill="#b9e2b6" stroke="#b9e2b6" stroke-width="1.51"/><path d="M544,852L705,1002L778,800Z" fill="#599cb6" stroke="#599cb6" stroke-width="1.51"/><path d="M628,708L544,852L778,800Z" fill="#5daabc" stroke="#5daabc" stroke-width="1.51"/><path d="M750,650L628,708L778,800Z" fill="#56afbf" stroke="#56afbf" stroke-width="1.51"/><path d="M696,141L559,274L760,290Z" fill="#91d3ba" stroke="#91d3ba" stroke-width="1.51"/><path d="M639,-173L583,-99L763,-114Z" fill="#bbe3bb" stroke="#bbe3bb" stroke-width="1.51"/><path d="M637,500L679,513L766,393Z" fill="#6bc4bf" stroke="#6bc4bf" stroke-width="1.51"/><path d="M760,290L559,274L766,393Z" fill="#7fccbc" stroke="#7fccbc" stroke-width="1.51"/><path d="M559,274L637,500L766,393Z" fill="#79cabd" stroke="#79cabd" stroke-width="1.51"/><path d="M706,-202L639,-173L763,-114Z" fill="#bbe2bf" stroke="#bbe2bf" stroke-width="1.51"/><path d="M559,274L530,446L637,500Z" fill="#82cdbc" stroke="#82cdbc" stroke-width="1.51"/><path d="M616,1094L714,1244L730,1110Z" fill="#5b7eaa" stroke="#5b7eaa" stroke-width="1.51"/><path d="M679,513L628,708L750,650Z" fill="#5eb9bf" stroke="#5eb9bf" stroke-width="1.51"/><path d="M637,500L628,708L679,513Z" fill="#65bfbf" stroke="#65bfbf" stroke-width="1.51"/><path d="M630,1008L616,1094L705,1002Z" fill="#5e8baf" stroke="#5e8baf" stroke-width="1.51"/><path d="M616,1094L637,1285L714,1244Z" fill="#5a7aa1" stroke="#5a7aa1" stroke-width="1.51"/><path d="M705,1002L616,1094L730,1110Z" fill="#5a87ae" stroke="#5a87ae" stroke-width="1.51"/><path d="M604,51L559,274L696,141Z" fill="#a5dbb8" stroke="#a5dbb8" stroke-width="1.51"/><path d="M443,571L628,708L637,500Z" fill="#71c0be" stroke="#71c0be" stroke-width="1.51"/><path d="M616,1094L471,1141L637,1285Z" fill="#6880a6" stroke="#6880a6" stroke-width="1.51"/><path d="M486,396L530,446L559,274Z" fill="#8dd1bb" stroke="#8dd1bb" stroke-width="1.51"/><path d="M463,92L444,208L559,274Z" fill="#aedeb7" stroke="#aedeb7" stroke-width="1.51"/><path d="M463,92L559,274L604,51Z" fill="#b0dfb6" stroke="#b0dfb6" stroke-width="1.51"/><path d="M443,571L453,694L628,708Z" fill="#77bdbe" stroke="#77bdbe" stroke-width="1.51"/><path d="M544,852L442,984L630,1008Z" fill="#6d99b2" stroke="#6d99b2" stroke-width="1.51"/><path d="M530,446L443,571L637,500Z" fill="#7cc9be" stroke="#7cc9be" stroke-width="1.51"/><path d="M403,-193L583,-99L639,-173Z" fill="#caeabc" stroke="#caeabc" stroke-width="1.51"/><path d="M453,694L544,852L628,708Z" fill="#6eb3bc" stroke="#6eb3bc" stroke-width="1.51"/><path d="M471,1141L384,1292L637,1285Z" fill="#6c7e9b" stroke="#6c7e9b" stroke-width="1.51"/><path d="M442,984L616,1094L630,1008Z" fill="#6a90ae" stroke="#6a90ae" stroke-width="1.51"/><path d="M583,-99L433,-86L604,51Z" fill="#c4e7b5" stroke="#c4e7b5" stroke-width="1.51"/><path d="M433,-86L463,92L604,51Z" fill="#c2e6b5" stroke="#c2e6b5" stroke-width="1.51"/><path d="M442,984L471,1141L616,1094Z" fill="#718dac" stroke="#718dac" stroke-width="1.51"/><path d="M403,-193L433,-86L583,-99Z" fill="#d0ecb9" stroke="#d0ecb9" stroke-width="1.51"/><path d="M453,694L422,875L544,852Z" fill="#77afb9" stroke="#77afb9" stroke-width="1.51"/><path d="M422,875L442,984L544,852Z" fill="#77a2b4" stroke="#77a2b4" stroke-width="1.51"/><path d="M444,208L486,396L559,274Z" fill="#9cd7b9" stroke="#9cd7b9" stroke-width="1.51"/><path d="M486,396L443,571L530,446Z" fill="#87cdbc" stroke="#87cdbc" stroke-width="1.51"/><path d="M237,1257L116,1294L384,1292Z" fill="#808394" stroke="#808394" stroke-width="1.51"/><path d="M304,199L237,364L444,208Z" fill="#b4e1b7" stroke="#b4e1b7" stroke-width="1.51"/><path d="M289,811L422,875L453,694Z" fill="#83b4b9" stroke="#83b4b9" stroke-width="1.51"/><path d="M433,-86L288,112L463,92Z" fill="#cbebb4" stroke="#cbebb4" stroke-width="1.51"/><path d="M442,984L270,1134L471,1141Z" fill="#7f90aa" stroke="#7f90aa" stroke-width="1.51"/><path d="M444,208L237,364L486,396Z" fill="#a4dab8" stroke="#a4dab8" stroke-width="1.51"/><path d="M237,364L443,571L486,396Z" fill="#96d3bb" stroke="#96d3bb" stroke-width="1.51"/><path d="M238,-35L288,112L433,-86Z" fill="#d6efb3" stroke="#d6efb3" stroke-width="1.51"/><path d="M308,976L270,1134L442,984Z" fill="#8598ac" stroke="#8598ac" stroke-width="1.51"/><path d="M237,364L232,592L443,571Z" fill="#97d2bc" stroke="#97d2bc" stroke-width="1.51"/><path d="M288,112L304,199L444,208Z" fill="#c1e6b5" stroke="#c1e6b5" stroke-width="1.51"/><path d="M288,112L444,208L463,92Z" fill="#c2e6b5" stroke="#c2e6b5" stroke-width="1.51"/><path d="M270,1134L384,1292L471,1141Z" fill="#7f87a2" stroke="#7f87a2" stroke-width="1.51"/><path d="M443,571L278,665L453,694Z" fill="#87c4bc" stroke="#87c4bc" stroke-width="1.51"/><path d="M422,875L308,976L442,984Z" fill="#80a0b1" stroke="#80a0b1" stroke-width="1.51"/><path d="M278,665L289,811L453,694Z" fill="#89bebb" stroke="#89bebb" stroke-width="1.51"/><path d="M232,592L278,665L443,571Z" fill="#90c9bc" stroke="#90c9bc" stroke-width="1.51"/><path d="M403,-193L238,-35L433,-86Z" fill="#dbf1b5" stroke="#dbf1b5" stroke-width="1.51"/><path d="M176,526L232,592L237,364Z" fill="#a0d5bb" stroke="#a0d5bb" stroke-width="1.51"/><path d="M270,1134L237,1257L384,1292Z" fill="#81869b" stroke="#81869b" stroke-width="1.51"/><path d="M289,811L308,976L422,875Z" fill="#86a9b4" stroke="#86a9b4" stroke-width="1.51"/><path d="M273,-256L238,-35L403,-193Z" fill="#e1f4ba" stroke="#e1f4ba" stroke-width="1.51"/><path d="M-46,-260L92,-191L273,-256Z" fill="#f1fac0" stroke="#f1fac0" stroke-width="1.51"/><path d="M162,-52L238,-35L273,-256Z" fill="#e4f5b5" stroke="#e4f5b5" stroke-width="1.51"/><path d="M92,-191L162,-52L273,-256Z" fill="#eaf7ba" stroke="#eaf7ba" stroke-width="1.51"/><path d="M238,-35L148,98L288,112Z" fill="#d6efb3" stroke="#d6efb3" stroke-width="1.51"/><path d="M278,665L94,680L289,811Z" fill="#92c2bb" stroke="#92c2bb" stroke-width="1.51"/><path d="M288,112L182,244L304,199Z" fill="#c4e7b5" stroke="#c4e7b5" stroke-width="1.51"/><path d="M182,244L237,364L304,199Z" fill="#b8e2b6" stroke="#b8e2b6" stroke-width="1.51"/><path d="M177,1034L270,1134L308,976Z" fill="#8b98ac" stroke="#8b98ac" stroke-width="1.51"/><path d="M289,811L129,861L308,976Z" fill="#8dacb4" stroke="#8dacb4" stroke-width="1.51"/><path d="M129,861L177,1034L308,976Z" fill="#8fa3b0" stroke="#8fa3b0" stroke-width="1.51"/><path d="M148,98L182,244L288,112Z" fill="#cdebb4" stroke="#cdebb4" stroke-width="1.51"/><path d="M94,680L129,861L289,811Z" fill="#94bbb9" stroke="#94bbb9" stroke-width="1.51"/><path d="M131,1102L237,1257L270,1134Z" fill="#8c8ca6" stroke="#8c8ca6" stroke-width="1.51"/><path d="M232,592L94,680L278,665Z" fill="#97c9bb" stroke="#97c9bb" stroke-width="1.51"/><path d="M177,1034L131,1102L270,1134Z" fill="#8f94a9" stroke="#8f94a9" stroke-width="1.51"/><path d="M90,416L176,526L237,364Z" fill="#a9daba" stroke="#a9daba" stroke-width="1.51"/><path d="M131,1102L116,1294L237,1257Z" fill="#8b899d" stroke="#8b899d" stroke-width="1.51"/><path d="M182,244L90,416L237,364Z" fill="#b1dfb7" stroke="#b1dfb7" stroke-width="1.51"/><path d="M162,-52L148,98L238,-35Z" fill="#def2b2" stroke="#def2b2" stroke-width="1.51"/><path d="M176,526L94,680L232,592Z" fill="#9ccebc" stroke="#9ccebc" stroke-width="1.51"/><path d="M7,61L148,98L162,-52Z" fill="#e0f3b2" stroke="#e0f3b2" stroke-width="1.51"/><path d="M-27,643L94,680L176,526Z" fill="#a1cfbb" stroke="#a1cfbb" stroke-width="1.51"/><path d="M129,861L23,972L177,1034Z" fill="#95a5b0" stroke="#95a5b0" stroke-width="1.51"/><path d="M148,98L12,270L182,244Z" fill="#cbeab5" stroke="#cbeab5" stroke-width="1.51"/><path d="M12,270L90,416L182,244Z" fill="#bbe3b6" stroke="#bbe3b6" stroke-width="1.51"/><path d="M-58,583L-27,643L176,526Z" fill="#a4d3bd" stroke="#a4d3bd" stroke-width="1.51"/><path d="M23,972L131,1102L177,1034Z" fill="#959cac" stroke="#959cac" stroke-width="1.51"/><path d="M92,-191L-1,-72L162,-52Z" fill="#edf8b3" stroke="#edf8b3" stroke-width="1.51"/><path d="M90,416L-58,583L176,526Z" fill="#a8d8bb" stroke="#a8d8bb" stroke-width="1.51"/><path d="M-70,1257L-117,1287L116,1294Z" fill="#8d8898" stroke="#8d8898" stroke-width="1.51"/><path d="M-21,1085L-70,1257L116,1294Z" fill="#938da1" stroke="#938da1" stroke-width="1.51"/><path d="M-21,1085L116,1294L131,1102Z" fill="#968fa6" stroke="#968fa6" stroke-width="1.51"/><path d="M7,61L12,270L148,98Z" fill="#d8efb4" stroke="#d8efb4" stroke-width="1.51"/><path d="M-1,-72L7,61L162,-52Z" fill="#e8f6b2" stroke="#e8f6b2" stroke-width="1.51"/><path d="M94,680L-59,856L129,861Z" fill="#9cbcb8" stroke="#9cbcb8" stroke-width="1.51"/><path d="M12,270L-20,391L90,416Z" fill="#b8e1b9" stroke="#b8e1b9" stroke-width="1.51"/><path d="M23,972L-21,1085L131,1102Z" fill="#989cac" stroke="#989cac" stroke-width="1.51"/><path d="M-59,856L23,972L129,861Z" fill="#9aafb4" stroke="#9aafb4" stroke-width="1.51"/><path d="M-20,391L-58,583L90,416Z" fill="#afdbbd" stroke="#afdbbd" stroke-width="1.51"/><path d="M-27,643L-59,856L94,680Z" fill="#9fc5be" stroke="#9fc5be" stroke-width="1.51"/><path d="M-46,-260L-1,-72L92,-191Z" fill="#f3fabe" stroke="#f3fabe" stroke-width="1.51"/><path d="M-158,671L-59,856L-27,643Z" fill="#a1c7c3" stroke="#a1c7c3" stroke-width="1.51"/><path d="M-124,398L-58,583L-20,391Z" fill="#b1ddc2" stroke="#b1ddc2" stroke-width="1.51"/><path d="M-46,-260L-191,-222L-1,-72Z" fill="#f6fbc5" stroke="#f6fbc5" stroke-width="1.51"/><path d="M-191,-222L-205,-90L-1,-72Z" fill="#f5fbc3" stroke="#f5fbc3" stroke-width="1.51"/><path d="M-214,88L-183,258L7,61Z" fill="#dff2bf" stroke="#dff2bf" stroke-width="1.51"/><path d="M7,61L-183,258L12,270Z" fill="#d3eebc" stroke="#d3eebc" stroke-width="1.51"/><path d="M-146,997L-21,1085L23,972Z" fill="#9ba1b3" stroke="#9ba1b3" stroke-width="1.51"/><path d="M-59,856L-146,997L23,972Z" fill="#9baab7" stroke="#9baab7" stroke-width="1.51"/><path d="M-1,-72L-205,-90L7,61Z" fill="#edf8ba" stroke="#edf8ba" stroke-width="1.51"/><path d="M-205,-90L-214,88L7,61Z" fill="#eaf7be" stroke="#eaf7be" stroke-width="1.51"/><path d="M-124,398L-20,391L12,270Z" fill="#bae2be" stroke="#bae2be" stroke-width="1.51"/><path d="M-183,258L-124,398L12,270Z" fill="#c2e6c0" stroke="#c2e6c0" stroke-width="1.51"/><path d="M-198,1182L-70,1257L-21,1085Z" fill="#9990ad" stroke="#9990ad" stroke-width="1.51"/><path d="M-158,671L-167,842L-59,856Z" fill="#a0bfc4" stroke="#a0bfc4" stroke-width="1.51"/><path d="M-124,398L-214,523L-58,583Z" fill="#aedbc7" stroke="#aedbc7" stroke-width="1.51"/><path d="M-146,997L-198,1182L-21,1085Z" fill="#9b9ab4" stroke="#9b9ab4" stroke-width="1.51"/><path d="M-58,583L-158,671L-27,643Z" fill="#a5cfc4" stroke="#a5cfc4" stroke-width="1.51"/><path d="M-167,842L-146,997L-59,856Z" fill="#9db0be" stroke="#9db0be" stroke-width="1.51"/><path d="M-198,1182L-117,1287L-70,1257Z" fill="#928ca4" stroke="#928ca4" stroke-width="1.51"/><path d="M-214,523L-158,671L-58,583Z" fill="#a8d4c8" stroke="#a8d4c8" stroke-width="1.51"/><path d="M-183,258L-214,523L-124,398Z" fill="#bae1c7" stroke="#bae1c7" stroke-width="1.51"/><path d="M-167,842L-198,1182L-146,997Z" fill="#9da3bb" stroke="#9da3bb" stroke-width="1.51"/><path d="M-214,523L-167,842L-158,671Z" fill="#a5ccca" stroke="#a5ccca" stroke-width="1.51"/><path d="M-214,523L-198,1182L-167,842Z" fill="#a0b8c5" stroke="#a0b8c5" stroke-width="1.51"/><path d="M-214,88L-214,523L-183,258Z" fill="#c8e9c7" stroke="#c8e9c7" stroke-width="1.51"/></svg>